<svg xmlns="http://www.w3.org/2000/svg"><symbol id="instagram" viewBox="0 0 100.3 95.52"><style>.st0{fill:#a74e25}</style><path d="M61.66 53.55c0 5.21-4.22 9.43-9.43 9.43s-9.43-4.22-9.43-9.43c0-1.22.24-2.42.7-3.55h-5.15v14.13c.01 1.82 1.49 3.3 3.31 3.3h21.16c1.82 0 3.3-1.48 3.31-3.3V50H61c.44 1.13.67 2.34.66 3.55zm3.82-7.43v-5.84h-5.84v5.84h5.84z" class="st0"/><path d="M52.23 59.62c3.35.01 6.08-2.7 6.09-6.05s-2.7-6.08-6.05-6.09c-1.28 0-2.52.39-3.56 1.14-.54.38-1.01.85-1.4 1.38a6.061 6.061 0 0 0 1.36 8.46c1.04.75 2.28 1.15 3.56 1.16z" class="st0"/><path d="M52.23 19.06c-19.05 0-34.49 15.44-34.49 34.49s15.44 34.49 34.49 34.49S86.72 72.6 86.72 53.55 71.28 19.06 52.23 19.06zM69.47 50v14.13c0 3.68-2.99 6.67-6.67 6.67H41.64c-3.67-.02-6.64-3-6.64-6.67V43c0-3.68 2.99-6.67 6.67-6.67H62.8c3.68 0 6.67 2.99 6.67 6.67v7z" class="st0"/></symbol><symbol id="return" viewBox="0 0 100.3 95.52"><style>.st0{fill:none;stroke:#c1c5c8;stroke-width:3;stroke-linecap:round;stroke-miterlimit:10}</style><path d="M32.14 56.93l14.02-20.44 13.48 20.44" class="st0"/></symbol><symbol id="twitter" viewBox="0 0 100.3 95.52"><style>.st0{fill:#a74e25}</style><path d="M67 44.52v1.13c0 10.69-8.16 23.07-23.07 23.07-4.4-.04-8.71-1.31-12.43-3.66h2a18.14 18.14 0 0 0 10.1-3.38 8.211 8.211 0 0 1-7.6-5.63c.48.07.95.16 1.41.28.76.05 1.52-.05 2.25-.28a8.124 8.124 0 0 1-6.47-7.88c1.16.54 2.4.92 3.66 1.13-2.25-2-3.66-4.22-3.66-7a6.42 6.42 0 0 1 1.13-3.94 22.859 22.859 0 0 0 16.6 8.44c0-.56-.28-1.13-.28-2 .01-4.5 3.66-8.15 8.16-8.16a7.66 7.66 0 0 1 5.91 2.53c1.8-.32 3.53-1 5.06-2-.63 1.9-1.93 3.5-3.66 4.5 1.66-.2 3.28-.68 4.78-1.41A18.767 18.767 0 0 1 67 44.52z" class="st0"/></symbol><symbol id="facebook" viewBox="0 0 100.3 95.52"><style>.st0{fill:#a74e25}</style><path d="M47.45 49.21H51v17.93h6.7V49.21H63l.4-5.16h-5.7V40c0-1.39 1.24-1.88 2.63-1.88.97.03 1.93.17 2.87.43l.89-5.28c-2.09-.52-4.24-.73-6.39-.64-2.17-.14-4.26.84-5.54 2.6-1.11 1.48-1.16 3.84-1.16 5.36v3.47h-3.56l.01 5.15c-.01 0 0 0 0 0z" class="st0"/></symbol></svg>