<svg xmlns="http://www.w3.org/2000/svg"><symbol id="facebook" viewBox="0 0 100.3 95.52"><defs><style>.cls-1{fill:#a74e25}.cls-2{fill:#fff}</style></defs><path d="M55.77 84.38a34.49 34.49 0 1 1 34.49-34.49 34.49 34.49 0 0 1-34.49 34.49" class="cls-1"/><path d="M47.45 49.21H51v17.93h6.7V49.21H63l.4-5.16h-5.7V40c0-1.39 1.24-1.88 2.63-1.88a12 12 0 0 1 2.87.43l.89-5.28a22.42 22.42 0 0 0-6.39-.64 6.35 6.35 0 0 0-5.54 2.6C51.05 36.71 51 39.07 51 40.59v3.47h-3.56v5.15z" class="cls-2"/></symbol><symbol id="instagram" viewBox="0 0 100.3 95.52"><defs><style>.cls-1{fill:#a74e25}</style></defs><path d="M61.66 53.55a9.43 9.43 0 1 1-18.86 0 9.27 9.27 0 0 1 .7-3.55h-5.15v14.13a3.31 3.31 0 0 0 3.31 3.3h21.16a3.31 3.31 0 0 0 3.31-3.3V50H61a9.66 9.66 0 0 1 .66 3.55zm3.82-7.43v-5.84h-5.84v5.84z" class="cls-1"/><path d="M52.23 59.62a6.07 6.07 0 1 0-3.52-11 6.24 6.24 0 0 0-1.4 1.38 6.06 6.06 0 0 0 4.92 9.61z" class="cls-1"/><path d="M52.23 19.06a34.49 34.49 0 1 0 34.49 34.49 34.49 34.49 0 0 0-34.49-34.49zM69.47 50v14.13a6.67 6.67 0 0 1-6.67 6.67H41.64A6.67 6.67 0 0 1 35 64.13V43a6.67 6.67 0 0 1 6.67-6.67H62.8A6.67 6.67 0 0 1 69.47 43z" class="cls-1"/></symbol><symbol id="return" viewBox="0 0 100.3 95.52"><defs><style>.cls-1{fill:#a74e25;opacity:.55}.cls-2{fill:none;stroke:#fff;stroke-linecap:round;stroke-miterlimit:10;stroke-width:3px}</style></defs><rect width="48.54" height="48.54" x="22.29" y="24.08" class="cls-1" rx="3.58"/><path d="M32.14 56.93l14.02-20.44 13.48 20.44" class="cls-2"/></symbol><symbol id="twitter" viewBox="0 0 100.3 95.52"><defs><style>.cls-1{fill:#a74e25}.cls-2{fill:#fff}</style></defs><path d="M50.15 15.55A34.47 34.47 0 1 0 84.61 50a34.46 34.46 0 0 0-34.46-34.45z" class="cls-1"/><path d="M67 44.52v1.13c0 10.69-8.16 23.07-23.07 23.07a23.63 23.63 0 0 1-12.43-3.66h2a18.18 18.18 0 0 0 10.1-3.38 8.21 8.21 0 0 1-7.6-5.63 12.38 12.38 0 0 1 1.41.28 6.22 6.22 0 0 0 2.25-.28 8.12 8.12 0 0 1-6.47-7.88 14.4 14.4 0 0 0 3.66 1.13c-2.25-2-3.66-4.22-3.66-7a6.43 6.43 0 0 1 1.13-3.94 22.86 22.86 0 0 0 16.6 8.44c0-.56-.28-1.13-.28-2a8.17 8.17 0 0 1 8.16-8.16 7.66 7.66 0 0 1 5.91 2.53 13.6 13.6 0 0 0 5.06-2 8.2 8.2 0 0 1-3.66 4.5 15.16 15.16 0 0 0 4.78-1.41A18.87 18.87 0 0 1 67 44.52z" class="cls-2"/></symbol></svg>
